<svg width="175" height="175" viewBox="0 0 175 175" fill="none" xmlns="http://www.w3.org/2000/svg">
<path fill-rule="evenodd" clip-rule="evenodd" d="M0 87.5C0 39.1751 39.1751 0 87.5 0C135.825 0 175 39.1751 175 87.5C175 135.825 135.825 175 87.5 175C39.1751 175 0 135.825 0 87.5ZM108.647 48.7843C113.499 43.9329 121.364 43.9329 126.216 48.7843C131.067 53.6357 131.067 61.5014 126.216 66.3528L105.068 87.5L126.216 108.647C131.067 113.499 131.067 121.364 126.216 126.216C121.364 131.067 113.499 131.067 108.647 126.216L87.5 105.069L66.3527 126.216C61.5013 131.067 53.6357 131.067 48.7843 126.216C43.9329 121.364 43.9328 113.499 48.7843 108.647L69.9315 87.5L48.7842 66.3527C43.9328 61.5013 43.9328 53.6357 48.7843 48.7842C53.6357 43.9328 61.5013 43.9328 66.3527 48.7842L87.5 69.9315L108.647 48.7843Z" fill="#E95230"/>
</svg>
