<svg width="175" height="175" viewBox="0 0 175 175" fill="none" xmlns="http://www.w3.org/2000/svg">
<path fill-rule="evenodd" clip-rule="evenodd" d="M87.5 0C39.1751 0 0 39.1751 0 87.5C0 135.825 39.1751 175 87.5 175C135.825 175 175 135.825 175 87.5C175 39.1751 135.825 0 87.5 0ZM113.787 45.596L129.381 61.2222C129.892 61.7297 130.298 62.3331 130.575 62.998C130.853 63.6628 130.998 64.376 131 65.0968C131.002 65.8176 130.863 66.5318 130.59 67.1985C130.316 67.8652 129.915 68.4714 129.407 68.9824L120.738 77.6695L97.4003 54.2831L106.069 45.596C107.095 44.5738 108.482 44 109.928 44C111.374 44 112.762 44.5738 113.787 45.596ZM46.1257 122.35L51.1474 100.632L92.8543 58.7856L116.219 82.1455L74.3532 123.939L52.5482 128.971C52.1703 129.01 51.7896 129.01 51.4117 128.971C50.6008 128.966 49.8011 128.78 49.0713 128.426C48.3414 128.072 47.6997 127.558 47.1931 126.924C46.6865 126.289 46.3277 125.549 46.143 124.758C45.9584 123.967 45.9524 123.144 46.1257 122.35Z" fill="#00B2FF"/>
</svg>
