<svg width="196" height="196" viewBox="0 0 196 196" fill="none" xmlns="http://www.w3.org/2000/svg">
<path fill-rule="evenodd" clip-rule="evenodd" d="M196 98C196 152.124 152.124 196 98 196C43.8761 196 0 152.124 0 98C0 43.8761 43.8761 0 98 0C152.124 0 196 43.8761 196 98ZM83 140.5C83 131.94 89.9396 125 98.5 125C107.06 125 114 131.94 114 140.5C114 149.06 107.06 156 98.5 156C89.9396 156 83 149.06 83 140.5ZM98.5 107C105.956 107 112 100.956 112 93.5L112 47.5C112 40.0442 105.956 34 98.5 34C91.0442 34 85 40.0442 85 47.5L85 93.5C85 100.956 91.0442 107 98.5 107Z" fill="#E95230"/>
</svg>
