<svg width="196" height="196" viewBox="0 0 196 196" fill="none" xmlns="http://www.w3.org/2000/svg">
<path fill-rule="evenodd" clip-rule="evenodd" d="M196 98C196 152.124 152.124 196 98 196C43.8761 196 0 152.124 0 98C0 43.8761 43.8761 0 98 0C152.124 0 196 43.8761 196 98ZM114 52.5C114 61.0604 107.06 68 98.5 68C89.9396 68 83 61.0604 83 52.5C83 43.9396 89.9396 37 98.5 37C107.06 37 114 43.9396 114 52.5ZM98.5 86C91.0442 86 85 92.0442 85 99.5V145.5C85 152.956 91.0442 159 98.5 159C105.956 159 112 152.956 112 145.5V99.5C112 92.0442 105.956 86 98.5 86Z" fill="#00B2FF"/>
</svg>
