<svg width="248" height="248" viewBox="0 0 248 248" fill="none" xmlns="http://www.w3.org/2000/svg">
<path fill-rule="evenodd" clip-rule="evenodd" d="M185.616 61.8718C151.445 27.701 96.0427 27.701 61.8719 61.8718C27.701 96.0427 27.701 151.445 61.8719 185.616C96.0427 219.786 151.445 219.786 185.616 185.616C219.786 151.445 219.786 96.0427 185.616 61.8718ZM169 120.683C169 101.527 149.075 86 124.5 86C99.9249 86 80 101.527 80 120.683C80 131.568 86.4358 141.279 96.4984 147.639C96.6234 148.431 96.6866 149.23 96.6875 150.03C96.6875 155.857 91.5199 160.952 85.5625 163.754L85.5625 166C96.5929 165.76 108.007 164.111 117.564 154.944C119.822 155.222 122.142 155.366 124.5 155.366C149.075 155.366 169 139.838 169 120.683Z" fill="#00B2FF"/>
</svg>
