<svg width="248" height="248" viewBox="0 0 248 248" fill="none" xmlns="http://www.w3.org/2000/svg">
<rect x="123.744" width="175" height="175" rx="87.5" transform="rotate(45 123.744 0)" fill="#00B2FF"/>
<path d="M124.5 86C149.075 86 169 101.527 169 120.683C169 139.838 149.075 155.366 124.5 155.366C122.141 155.366 119.822 155.222 117.564 154.944C108.007 164.111 96.5929 165.76 85.5625 166V163.754C91.5199 160.952 96.6875 155.857 96.6875 150.03C96.6866 149.23 96.6234 148.431 96.4984 147.639C86.4358 141.279 80 131.568 80 120.683C80 101.527 99.9249 86 124.5 86Z" fill="#1A1C21"/>
</svg>
