<svg width="196" height="196" viewBox="0 0 196 196" fill="none" xmlns="http://www.w3.org/2000/svg">
<path fill-rule="evenodd" clip-rule="evenodd" d="M196 98C196 152.124 152.124 196 98 196C43.8761 196 0 152.124 0 98C0 43.8761 43.8761 0 98 0C152.124 0 196 43.8761 196 98ZM122.363 60.6379C125.437 55.315 132.243 53.4913 137.566 56.5645C142.889 59.6376 144.712 66.444 141.639 71.7668L103.847 137.226C101.119 141.949 95.4519 143.917 90.4904 142.153C88.4562 141.697 86.5279 140.661 84.9702 139.051L61.5388 114.826C57.2924 110.436 57.409 103.434 61.7992 99.188C66.1894 94.9416 73.1908 95.0582 77.4372 99.4484L91.5389 114.028L122.363 60.6379Z" fill="#1BD565"/>
</svg>
