<svg width="249" height="249" viewBox="0 0 249 249" fill="none" xmlns="http://www.w3.org/2000/svg">
<path fill-rule="evenodd" clip-rule="evenodd" d="M62.6282 62.6282C96.799 28.4573 152.201 28.4573 186.372 62.6282C220.543 96.799 220.543 152.201 186.372 186.372C152.201 220.543 96.799 220.543 62.6282 186.372C28.4573 152.201 28.4573 96.799 62.6282 62.6282ZM166.83 112.077C173.69 112.077 179.252 117.639 179.252 124.5C179.252 131.361 173.69 136.923 166.83 136.923H136.923V166.83C136.923 173.69 131.361 179.252 124.5 179.252C117.639 179.252 112.077 173.69 112.077 166.83V136.923H82.1705C75.3095 136.923 69.7477 131.361 69.7477 124.5C69.7477 117.639 75.3095 112.077 82.1704 112.077L112.077 112.077L112.077 82.1705C112.077 75.3095 117.639 69.7477 124.5 69.7477C131.361 69.7477 136.923 75.3095 136.923 82.1705L136.923 112.077L166.83 112.077Z" fill="#00B2FF"/>
</svg>
