<svg width="41" height="40" viewBox="0 0 41 40" fill="none" xmlns="http://www.w3.org/2000/svg">
<ellipse cx="18.593" cy="19.5476" rx="18.593" ry="18.5476" fill="#00B2FF"/>
<path d="M4.76048 36.7802C6.60677 32.1688 12.8828 19.7654 18.123 11.6506C18.6291 10.8653 21.2671 10.8653 21.2671 13.2212C21.2671 15.5771 13.4068 31.2831 8.69064 35.9949C5.9116 38.7714 3.18842 40.7067 4.76048 36.7802Z" fill="white"/>
<path d="M32.2716 6.93881C26.6122 3.7976 11.0487 8.77118 3.97446 11.6506C2.40239 12.2905 0.973239 9.29472 2.40239 8.50941C14.9789 1.59874 28.0794 1.44171 33.0576 2.22701C40.1319 3.34296 40.1319 6.93882 36.9878 9.29472C33.8436 11.6506 29.1274 11.6506 30.6995 10.8653C31.4855 10.08 34.6297 8.24765 32.2716 6.93881Z" fill="white"/>
<path d="M4.76048 36.7802C6.60677 32.1688 12.8828 19.7654 18.123 11.6506C18.6291 10.8653 21.2671 10.8653 21.2671 13.2212C21.2671 15.5771 13.4068 31.2831 8.69064 35.9949C5.9116 38.7714 3.18842 40.7067 4.76048 36.7802Z" stroke="white" stroke-width="2"/>
<path d="M32.2716 6.93881C26.6122 3.7976 11.0487 8.77118 3.97446 11.6506C2.40239 12.2905 0.973239 9.29472 2.40239 8.50941C14.9789 1.59874 28.0794 1.44171 33.0576 2.22701C40.1319 3.34296 40.1319 6.93882 36.9878 9.29472C33.8436 11.6506 29.1274 11.6506 30.6995 10.8653C31.4855 10.08 34.6297 8.24765 32.2716 6.93881Z" stroke="white" stroke-width="2"/>
</svg>
