<svg width="18" height="20" viewBox="0 0 18 20" fill="none" xmlns="http://www.w3.org/2000/svg">
<path d="M7.33596 0C11.389 0 14.6723 3.52597 14.6723 7.87431C14.6744 9.30683 14.3107 10.7126 13.6205 11.9387L17.1774 15.7565L17.165 15.7698C17.5447 16.1598 17.7778 16.7135 17.7778 17.3392C17.7781 18.5482 16.8808 19.4936 15.7556 19.4934C15.1808 19.4931 14.6668 19.2463 14.3 18.8447L14.2911 18.8543L10.6212 14.9149C9.60177 15.4643 8.47666 15.7498 7.33596 15.7486C3.28273 15.7486 3.02432e-05 12.2231 3.02432e-05 7.87431C3.02432e-05 3.52597 3.28296 0 7.33596 0V0ZM7.29148 12.6523C9.82475 12.6523 11.8768 10.449 11.8768 7.73085C11.8768 5.01323 9.82475 2.80941 7.29148 2.80941C4.75822 2.80941 2.70661 5.01298 2.70661 7.73085C2.70638 10.449 4.75822 12.6523 7.29148 12.6523Z" fill="white"/>
</svg>
